<?xml version="1.0" encoding="UTF-8" standalone="no" ?>
<!DOCTYPE svg PUBLIC "-//W3C//DTD SVG 1.1//EN" "http://www.w3.org/Graphics/SVG/1.1/DTD/svg11.dtd">
<svg xmlns="http://www.w3.org/2000/svg" xmlns:xlink="http://www.w3.org/1999/xlink" version="1.1" width="1080" height="1080" viewBox="0 0 1080 1080" xml:space="preserve"
>
<defs>
</defs>
<g transform="matrix(1 0 0 1 540 540)" id="ece92944-48fd-44c1-9137-63ec5c8882c0"  >
<rect style="stroke: none; stroke-width: 1; stroke-dasharray: none; stroke-linecap: butt; stroke-dashoffset: 0; stroke-linejoin: miter; stroke-miterlimit: 4; fill: rgb(255,255,255); fill-rule: nonzero; opacity: 1; visibility: hidden;" vector-effect="non-scaling-stroke"  x="-540" y="-540" rx="0" ry="0" width="1080" height="1080" />
</g>
<g transform="matrix(1 0 0 1 540 540)" id="e19d3b35-3ee2-47fc-b5ce-130afec20791"  >
</g>
<g transform="matrix(1.33 0 0 1.33 539.72 739.41)"  >
<path style="stroke: none; stroke-width: 1; stroke-dasharray: none; stroke-linecap: butt; stroke-dashoffset: 0; stroke-linejoin: miter; stroke-miterlimit: 4; fill: rgb(0,0,0); fill-rule: nonzero; opacity: 1;" vector-effect="non-scaling-stroke"  transform=" translate(-348.99, -425.24)" d="M 465.76 351.84 L 465.76 498.4 L 329.6 498.56016 L 231.99800000000002 498.56016 L 231.99800000000002 352.00016 L 465.75800000000004 351.84 M 226.07800000000003 339.92199999999997 C 222.55850000000004 340.24231 220.55850000000004 342.16029999999995 220.15610000000004 345.7618 L 220.15610000000004 504.72180000000003 C 220.23422500000004 506.72180000000003 221.03501000000003 508.2413 222.55450000000005 509.36240000000004 C 223.43341000000004 510.08115000000004 224.63260000000005 510.48350000000005 226.07400000000004 510.56160000000006 L 440.394 510.56160000000006 L 472.632 510.48347500000006 C 475.2726 510.00300500000003 476.9523 508.48347500000006 477.6711 505.92487500000004 L 477.83126000000004 345.92487500000004 C 477.75313500000004 343.92487500000004 477.03048000000007 342.40537500000005 475.59296000000006 341.20607500000006 C 474.31176000000005 340.24513500000006 472.95236000000006 339.84667500000006 471.67106000000007 339.92487500000004 L 226.48106000000007 339.92096900000007" stroke-linecap="round" />
</g>
<g transform="matrix(1.33 0 0 1.33 367.09 639.24)"  >
<path style="stroke: none; stroke-width: 1; stroke-dasharray: none; stroke-linecap: butt; stroke-dashoffset: 0; stroke-linejoin: miter; stroke-miterlimit: 4; fill: rgb(0,0,0); fill-rule: nonzero; opacity: 1;" vector-effect="non-scaling-stroke"  transform=" translate(-219.52, -350.12)" d="M 341.52 414.72 L 214.56 488.00100000000003 L 146.4 370.16100000000006 L 97.599 285.6020000000001 L 224.559 212.32100000000008 L 341.519 414.7210000000001 M 231.99900000000002 201.12100000000012 C 229.92090000000002 198.1601000000001 227.28020000000004 197.44130000000013 223.99900000000002 198.8827000000001 L 86.31900000000002 278.3207000000001 C 84.63930000000002 279.3598000000001 83.67840000000001 280.8793000000001 83.44010000000002 282.7191000000001 C 83.27994000000001 283.8402000000001 83.51822500000002 285.03940000000006 84.15885000000002 286.3207000000001 L 191.35885000000002 471.9207000000001 L 207.51885000000001 499.7607000000001 C 209.28055 501.7607000000001 211.44075 502.4795000000001 213.99935000000002 501.8388000000001 L 352.63935000000004 421.9988000000001 C 354.31905000000006 420.95970000000005 355.27995000000004 419.51830000000007 355.60025 417.6785000000001 C 355.76041000000004 416.0769000000001 355.44009 414.7176000000001 354.72134 413.6785000000001 L 232.24133999999998 201.5185000000001" stroke-linecap="round" />
</g>
<g transform="matrix(1.33 0 0 1.33 367.55 439.9)"  >
<path style="stroke: none; stroke-width: 1; stroke-dasharray: none; stroke-linecap: butt; stroke-dashoffset: 0; stroke-linejoin: miter; stroke-miterlimit: 4; fill: rgb(0,0,0); fill-rule: nonzero; opacity: 1;" vector-effect="non-scaling-stroke"  transform=" translate(-219.86, -200.61)" d="M 224.96 338.56 L 98.00000000000001 265.283 L 165.92200000000003 147.28300000000002 L 214.723 62.72400000000002 L 341.683 136.00100000000003 L 224.963 338.56100000000004 M 355.203 136.88100000000003 C 356.72249999999997 133.68180000000004 356.00377999999995 130.95910000000003 353.12489999999997 128.80290000000002 L 215.44489999999996 49.36190000000002 C 213.68319999999997 48.48299000000002 211.92539999999997 48.40096000000002 210.16369999999995 49.12362000000002 C 209.12459999999996 49.52206000000002 208.16369999999995 50.322820000000014 207.44489999999996 51.52202000000002 L 100.24489999999996 237.12202000000002 L 84.16689999999996 265.04402000000005 C 83.28798999999995 267.60262000000006 83.76845999999996 269.76282000000003 85.60829999999996 271.68462000000005 L 224.08829999999995 351.7626200000001 C 225.84999999999994 352.7235600000001 227.52969999999993 352.8017200000001 229.28749999999994 352.1610600000001 C 230.72889999999992 351.52044000000006 231.76799999999994 350.55946000000006 232.32659999999993 349.4422600000001 L 354.80659999999995 137.2822600000001" stroke-linecap="round" />
</g>
<g transform="matrix(1.33 0 0 1.33 540.28 340.59)"  >
<path style="stroke: none; stroke-width: 1; stroke-dasharray: none; stroke-linecap: butt; stroke-dashoffset: 0; stroke-linejoin: miter; stroke-miterlimit: 4; fill: rgb(0,0,0); fill-rule: nonzero; opacity: 1;" vector-effect="non-scaling-stroke"  transform=" translate(-349.41, -126.13)" d="M 232.64 199.52 L 232.64 52.96000000000001 L 368.72 52.79984000000001 L 466.322 52.79984000000001 L 466.322 199.35984000000002 L 232.642 199.52 M 472.322 211.442 C 475.8415 211.12169 477.8415 209.2037 478.2439 205.6022 L 478.2439 46.6422 C 478.165774 44.6422 477.36499 43.1227 475.8455 42.0016 C 474.96659 41.28285 473.7674 40.880500000000005 472.326 40.802400000000006 L 258.00600000000003 40.802400000000006 L 225.76800000000003 40.880525000000006 C 223.12740000000002 41.360995 221.44770000000003 42.880525000000006 220.72890000000004 45.439125000000004 L 220.56874000000005 205.439125 C 220.64686500000005 207.439125 221.36952000000005 208.95862499999998 222.80704000000006 210.15792499999998 C 224.08824000000007 211.11886499999997 225.44764000000006 211.51732499999997 226.72894000000005 211.439125 L 471.76894000000004 211.439125" stroke-linecap="round" />
</g>
<g transform="matrix(1.33 0 0 1.33 712.47 640)"  >
<path style="stroke: none; stroke-width: 1; stroke-dasharray: none; stroke-linecap: butt; stroke-dashoffset: 0; stroke-linejoin: miter; stroke-miterlimit: 4; fill: rgb(0,0,0); fill-rule: nonzero; opacity: 1;" vector-effect="non-scaling-stroke"  transform=" translate(-478.55, -350.68)" d="M 473.44 212.8 L 600.4 286.077 L 532.478 404.077 L 483.67699999999996 488.63599999999997 L 356.717 415.35499999999996 L 473.447 212.80499999999995 M 343.207 414.405 C 341.6875 417.6042 342.40622 420.32689999999997 345.2851 422.4831 L 482.9651 501.92409999999995 C 484.7268 502.80301 486.4846 502.88503999999995 488.2463 502.1623799999999 C 489.28540000000004 501.76393999999993 490.2463 500.9631799999999 490.9651 499.76397999999995 L 598.1651 314.1639799999999 L 614.2431 286.2419799999999 C 615.12201 283.6833799999999 614.6415400000001 281.5231799999999 612.8017 279.6013799999999 L 474.25169999999997 199.52737999999988 C 472.48999999999995 198.5664399999999 470.8103 198.4882799999999 469.05249999999995 199.1289399999999 C 467.61109999999996 199.7695599999999 466.57199999999995 200.73053999999988 466.01339999999993 201.84773999999987 L 343.45339999999993 414.0877399999999" stroke-linecap="round" />
</g>
<g transform="matrix(1.33 0 0 1.33 712.91 440.75)"  >
<path style="stroke: none; stroke-width: 1; stroke-dasharray: none; stroke-linecap: butt; stroke-dashoffset: 0; stroke-linejoin: miter; stroke-miterlimit: 4; fill: rgb(0,0,0); fill-rule: nonzero; opacity: 1;" vector-effect="non-scaling-stroke"  transform=" translate(-478.88, -201.24)" d="M 356.88 136.64 L 483.84 63.35899999999998 L 552 181.19899999999998 L 600.801 265.758 L 473.84100000000007 339.039 L 356.8810000000001 136.63899999999998 M 466.40100000000007 350.239 C 468.4791000000001 353.19989999999996 471.11980000000005 353.9187 474.40100000000007 352.47729999999996 L 612.0810000000001 273.0363 C 613.7607000000002 271.99719999999996 614.7216000000001 270.47769999999997 614.9599000000002 268.6379 C 615.1200600000002 267.5168 614.8817750000002 266.3176 614.2411500000002 265.0363 L 507.0411500000002 79.43629999999999 L 490.88115000000016 51.596299999999985 C 489.11945000000014 49.596299999999985 486.95925000000017 48.87749999999998 484.40065000000016 49.518199999999986 L 345.76065000000017 129.35819999999998 C 344.08095000000014 130.39729999999997 343.12005000000016 131.8387 342.7997500000002 133.67849999999999 C 342.63959000000017 135.28009999999998 342.9599100000002 136.6394 343.6786600000002 137.67849999999999 L 466.1586600000002 349.83849999999995" stroke-linecap="round" />
</g>
</svg>